<svg xmlns="http://www.w3.org/2000/svg" fill="none" viewBox="0 0 93 24" class="Navbar_logoFull__sb4tB"><g clip-path="url(#logo-full_svg__a)"><path fill="#FF6363" fill-rule="evenodd" d="M6 15.491v2.504l-6-6 1.251-1.251zm2.504 2.504H6l6 6 1.251-1.251zm14.24-4.747 1.253-1.253-12-12-1.25 1.256 4.747 4.747h-2.868L9.312 2.691 8.061 3.942l2.06 2.061h-1.44v9.314h9.314v-1.44l2.061 2.06 1.251-1.25-3.312-3.314v-2.87zM6.626 5.374 5.37 6.627 6.714 7.97l1.252-1.252zM17.282 16.03l-1.252 1.253 1.343 1.344 1.253-1.253zM3.939 8.06 2.686 9.315 6 12.627v-2.506zM13.88 18h-2.506l3.313 3.314 1.253-1.253z" clip-rule="evenodd"></path></g><defs><clipPath id="logo-full_svg__a"><path fill="#fff" d="M0 0h92.622v24H0z"></path></clipPath></defs></svg>